# 3ds Max Wavefront OBJ Exporter v0.94b - (c)2007 guruware
# File Created: 28.08.2009 21:21:57

mtllib db_table_07.mtl

#
# object dbtable_07
#

v  0.8861 0.4200 0.3203
v  0.8861 0.4200 -0.3203
v  -0.8861 0.4200 -0.3203
v  -0.8861 0.4200 0.3203
v  0.8861 0.0000 0.3203
v  0.8861 0.0000 -0.3203
v  -0.8861 0.0000 -0.3203
v  -0.8861 0.0000 0.3203
v  0.7977 0.0000 0.3203
v  0.7977 0.0000 -0.3203
v  -0.7873 0.0060 -0.3203
v  -0.7873 0.0060 0.3203
v  0.7977 0.3282 0.3203
v  -0.7873 0.3341 0.3203
v  -0.7873 0.3341 -0.3203
v  0.7977 0.3282 -0.3203
# 16 vertices

vn 0.0000 1.0000 -0.0000
vn 1.0000 0.0000 -0.0000
vn -1.0000 0.0000 -0.0000
vn 0.0000 -1.0000 -0.0000
vn 0.0604 -0.9982 -0.0000
vn 0.0000 0.0000 1.0000
vn 0.0000 0.0000 -1.0000
vn -0.0038 -1.0000 0.0000
# 8 vertex normals

vt 0.0147 0.0168 0.0000
vt 0.3272 0.0168 0.0000
vt 0.3272 0.8812 0.0000
vt 0.0147 0.8812 0.0000
vt 0.9867 0.7700 0.0000
vt 0.6756 0.7700 0.0000
vt 0.6756 0.5661 0.0000
vt 0.9867 0.5661 0.0000
vt 0.6756 0.2207 0.0000
vt 0.6756 0.0168 0.0000
vt 0.9866 0.0168 0.0000
vt 0.9866 0.2207 0.0000
vt 0.6084 0.8847 0.0000
vt 0.3491 0.8847 0.0000
vt 0.3491 0.8490 0.0000
vt 0.6084 0.8490 0.0000
vt 0.3507 0.7960 0.0000
vt 0.6100 0.7960 0.0000
vt 0.6100 0.8360 0.0000
vt 0.3507 0.8360 0.0000
vt 0.7903 0.9377 0.0000
vt 0.8318 0.8978 0.0000
vt 0.9803 0.8978 0.0000
vt 0.9803 0.9377 0.0000
vt 0.9803 0.8438 0.0000
vt 0.9803 0.8884 0.0000
vt 0.8304 0.8884 0.0000
vt 0.7916 0.8438 0.0000
vt 0.7923 0.8303 0.0000
vt 0.8311 0.7857 0.0000
vt 0.9803 0.7857 0.0000
vt 0.9803 0.8303 0.0000
vt 0.9803 0.9910 0.0000
vt 0.8322 0.9910 0.0000
vt 0.7908 0.9511 0.0000
vt 0.9803 0.9511 0.0000
vt 0.9870 0.3859 0.0000
vt 0.6759 0.3859 0.0000
vt 0.6759 0.2266 0.0000
vt 0.9870 0.2266 0.0000
vt 0.6756 0.5546 0.0000
vt 0.6756 0.3952 0.0000
vt 0.9867 0.3952 0.0000
vt 0.9867 0.5546 0.0000
vt 0.6478 0.7601 0.0000
vt 0.3479 0.7601 0.0000
vt 0.3479 0.0179 0.0000
vt 0.6478 0.0179 0.0000
vt 0.6883 0.9588 0.0000
vt 0.7241 0.9948 0.0000
vt 0.0068 0.9948 0.0000
vt 0.0467 0.9588 0.0000
vt 0.0068 0.9342 0.0000
vt 0.0425 0.8982 0.0000
vt 0.6841 0.8982 0.0000
vt 0.7241 0.9342 0.0000
# 56 texture coords

g dbtable_07
usemtl dbtable_07
s 4
f 1/1/1 2/2/1 3/3/1 4/4/1 
s 16
f 2/5/2 1/6/2 5/7/2 6/8/2 
s 64
f 3/9/3 7/10/3 8/11/3 4/12/3 
s 2
f 6/13/4 5/14/4 9/15/4 10/16/4 
f 8/17/5 7/18/5 11/19/5 12/20/5 
s 8
f 1/21/6 13/22/6 9/23/6 5/24/6 
f 8/25/6 12/26/6 14/27/6 4/28/6 
s 32
f 3/29/7 15/30/7 11/31/7 7/32/7 
f 10/33/7 16/34/7 2/35/7 6/36/7 
s off
f 13/37/3 16/38/3 10/39/3 9/40/3 
f 14/41/2 12/42/2 11/43/2 15/44/2 
f 14/45/8 15/46/8 16/47/8 13/48/8 
s 8
f 13/49/6 1/50/6 4/51/6 14/52/6 
s 32
f 2/53/7 16/54/7 15/55/7 3/56/7 
# 14 polygons

